<svg xmlns="http://www.w3.org/2000/svg" id="Layer_1" data-name="Layer 1" viewBox="0 0 24 24"><defs><style>.cls-1{fill:#fff;}.cls-2{fill:#252525;}</style></defs><title>3239-linkedin-icon-footer</title><path class="cls-1" d="M12,1A11,11,0,1,1,1,12,11.0001,11.0001,0,0,1,12,1Z"/><path class="cls-2" d="M7.19857,16.13261H9.25834V9.267H7.19857Zm8.02461-7.10309a3.09224,3.09224,0,0,0-2.52883,1.17072V9.24446H10.62712v6.88815h2.06723V12.40794A1.63529,1.63529,0,0,1,14.319,10.85263c.9034,0,1.12608.768,1.12608,1.53577v3.74346H17.505V12.23538c0-2.707-1.28174-3.20586-2.2818-3.20586Zm-7.00426-.4484A1.03121,1.03121,0,1,0,7.18753,7.54973,1.03165,1.03165,0,0,0,8.21892,8.58112Zm0,0"/></svg>