<svg xmlns="http://www.w3.org/2000/svg" id="Layer_1" data-name="Layer 1" viewBox="0 0 24 24"><defs><style>.cls-1{fill:#fff;}.cls-2{fill:#252525;}</style></defs><title>3239-twitter-icon-footer</title><path class="cls-1" d="M12,1A11,11,0,1,1,1,12,11.0001,11.0001,0,0,1,12,1Z"/><path class="cls-2" d="M18.87706,8.41064a5.48243,5.48243,0,0,1-1.53992.41035,2.62162,2.62162,0,0,0,1.17894-1.44023,5.43191,5.43191,0,0,1-1.70285.63161,2.71579,2.71579,0,0,0-1.9566-.82079,2.64158,2.64158,0,0,0-2.68006,2.60068,2.51494,2.51494,0,0,0,.06976.59338A7.68808,7.68808,0,0,1,6.72139,7.66725a2.52988,2.52988,0,0,0-.36278,1.30751,2.57947,2.57947,0,0,0,1.19216,2.16531,2.73187,2.73187,0,0,1-1.2151-.32595v.03275a2.624,2.624,0,0,0,2.15059,2.5514,2.76186,2.76186,0,0,1-.7062.09138,2.6982,2.6982,0,0,1-.50371-.04645,2.67374,2.67374,0,0,0,2.50458,1.80688A5.481,5.481,0,0,1,6.45112,16.3637a5.65037,5.65037,0,0,1-.64011-.03653,7.75661,7.75661,0,0,0,4.11,1.16969,7.45938,7.45938,0,0,0,7.6271-7.40329l-.00736-.33671a5.34869,5.34869,0,0,0,1.3363-1.34622Zm0,0"/></svg>