<svg xmlns="http://www.w3.org/2000/svg" id="Layer_1" data-name="Layer 1" viewBox="0 0 24 24"><defs><style>.cls-1{fill:#fff;}.cls-2{fill:#252525;}</style></defs><title>3239-youtube-icon-footer</title><path class="cls-1" d="M12,1A11,11,0,1,1,1,12,11.0001,11.0001,0,0,1,12,1Z"/><path class="cls-2" d="M18.43272,8.75919a11.09312,11.09312,0,0,1,.24522,2.01324L18.70275,12l-.02481,1.22757a11.21841,11.21841,0,0,1-.24522,2.03768,1.74207,1.74207,0,0,1-1.20313,1.17868,17.48979,17.48979,0,0,1-2.99521.24559L12,16.714l-2.23437-.02445a17.48983,17.48983,0,0,1-2.99522-.24559,1.74207,1.74207,0,0,1-1.20313-1.17868,11.21841,11.21841,0,0,1-.24522-2.03768L5.29725,12q0-.54007.02481-1.22757a11.09312,11.09312,0,0,1,.24522-2.01324A1.71566,1.71566,0,0,1,6.77041,7.55607a17.48983,17.48983,0,0,1,2.99522-.24559L12,7.286l2.23438.02445a17.48979,17.48979,0,0,1,2.99521.24559,1.71566,1.71566,0,0,1,1.20313,1.20312Zm-7.80772,5.254L14.13584,12,10.625,10.01121Z"/></svg>